<svg id="svg" version="1.1" xmlns="http://www.w3.org/2000/svg" xmlns:xlink="http://www.w3.org/1999/xlink" width="400" height="400" viewBox="0, 0, 400,400"><g id="svgg"><path id="path0" d="M108.105 117.091 L 76.172 149.025 76.172 200.978 L 76.172 252.931 107.716 284.474 L 139.260 316.016 212.111 316.016 L 284.963 316.016 316.700 284.276 L 348.437 252.537 348.418 200.390 L 348.398 148.242 317.070 116.690 L 285.742 85.137 212.890 85.147 L 140.037 85.156 108.105 117.091 M288.582 117.199 C 323.146 121.533,339.767 162.090,318.341 189.813 L 315.687 193.248 318.209 195.745 C 343.251 220.540,332.372 266.104,298.438 278.549 C 290.401 281.497,292.230 281.379,252.051 281.538 L 216.016 281.682 216.016 267.013 L 216.016 252.344 249.131 252.344 C 286.621 252.344,287.322 252.305,292.142 249.949 C 308.056 242.170,308.289 217.946,292.523 210.416 C 287.875 208.197,287.998 208.203,250.514 208.203 L 216.016 208.203 216.016 193.359 L 216.016 178.516 250.684 178.506 C 272.134 178.500,285.991 178.349,287.028 178.110 C 301.898 174.680,304.102 153.741,290.321 146.825 L 287.695 145.508 242.090 145.404 L 196.484 145.300 196.484 213.470 L 196.484 281.641 180.859 281.641 L 165.234 281.641 165.234 213.479 L 165.234 145.317 131.689 145.217 L 98.143 145.117 112.012 130.957 L 125.881 116.797 205.626 116.797 C 258.013 116.797,286.473 116.935,288.582 117.199 M134.375 216.308 L 134.375 274.803 119.378 259.765 L 104.381 244.727 104.171 216.574 L 103.961 188.422 119.005 173.117 C 127.279 164.700,134.123 157.813,134.212 157.813 C 134.302 157.813,134.375 184.135,134.375 216.308 M120.313 336.914 C 122.129 338.740,123.703 340.234,123.811 340.234 C 123.918 340.234,122.520 338.740,120.703 336.914 C 118.886 335.088,117.312 333.594,117.205 333.594 C 117.097 333.594,118.496 335.088,120.313 336.914 " stroke="none" fill="#fbfbfb" fill-rule="evenodd"></path><path id="path1" d="M123.512 61.449 C 121.093 63.874,119.201 65.946,119.307 66.052 C 119.413 66.158,103.423 82.320,83.773 101.969 L 48.047 137.694 48.047 200.940 L 48.047 264.187 87.798 303.968 L 127.549 343.750 212.122 343.750 L 296.695 343.750 336.432 304.004 L 376.170 264.258 376.171 199.813 L 376.172 135.368 336.931 96.198 L 297.689 57.028 212.800 57.033 L 127.910 57.038 123.512 61.449 M128.125 57.526 C 128.125 57.584,126.147 59.561,123.730 61.921 L 119.336 66.211 123.626 61.816 C 127.611 57.735,128.125 57.244,128.125 57.526 M317.153 116.699 L 348.825 148.633 348.827 200.390 L 348.828 252.147 316.895 284.081 L 284.963 316.016 212.111 316.016 L 139.260 316.016 107.520 284.278 L 75.781 252.541 75.781 200.978 L 75.781 149.416 108.105 117.091 L 140.428 84.766 212.955 84.766 L 285.482 84.766 317.153 116.699 M112.109 131.055 L 98.246 144.922 131.740 144.922 L 165.234 144.922 165.234 213.077 L 165.234 281.233 180.860 281.339 L 196.485 281.445 196.485 213.184 L 196.484 144.922 240.410 144.922 C 271.468 144.922,284.943 145.051,286.407 145.361 C 300.784 148.414,304.647 167.660,292.510 175.765 C 288.222 178.628,290.125 178.497,251.172 178.610 L 216.211 178.711 216.109 193.457 L 216.006 208.203 251.265 208.208 C 280.578 208.212,286.877 208.307,288.621 208.771 C 307.689 213.846,309.998 241.646,292.057 250.158 C 287.391 252.373,287.939 252.344,250.567 252.344 L 216.016 252.344 216.016 266.797 L 216.016 281.250 251.316 281.250 C 290.056 281.250,289.921 281.257,297.031 278.875 C 332.183 267.098,343.358 222.280,317.838 195.427 L 315.534 193.003 317.240 191.049 C 337.757 167.541,327.087 129.496,297.113 119.286 C 290.650 117.084,295.105 117.188,207.084 117.188 L 125.972 117.188 112.109 131.055 M119.210 173.012 L 104.297 188.211 104.297 216.471 L 104.297 244.730 119.238 259.668 L 134.180 274.606 134.180 216.209 C 134.180 184.091,134.167 157.813,134.152 157.813 C 134.136 157.813,127.413 164.652,119.210 173.012 " stroke="none" fill="#131313" fill-rule="evenodd"></path><path id="path2" d="M316.602 116.406 C 318.742 118.555,320.581 120.313,320.688 120.313 C 320.796 120.313,319.133 118.555,316.992 116.406 C 314.852 114.258,313.013 112.500,312.905 112.500 C 312.798 112.500,314.461 114.258,316.602 116.406 M119.332 123.535 L 112.695 130.273 119.434 123.637 C 125.694 117.472,126.348 116.797,126.070 116.797 C 126.014 116.797,122.982 119.829,119.332 123.535 M154.400 145.202 C 154.994 145.292,155.873 145.290,156.353 145.197 C 156.833 145.104,156.348 145.031,155.273 145.034 C 154.199 145.037,153.806 145.112,154.400 145.202 M161.035 145.206 C 161.841 145.291,163.159 145.291,163.965 145.206 C 164.771 145.122,164.111 145.053,162.500 145.053 C 160.889 145.053,160.229 145.122,161.035 145.206 M218.487 145.215 C 230.696 145.272,250.559 145.272,262.628 145.215 C 274.696 145.157,264.707 145.111,240.430 145.111 C 216.152 145.111,206.278 145.157,218.487 145.215 M75.971 200.977 C 75.971 229.551,76.017 241.183,76.074 226.825 C 76.131 212.467,76.131 189.089,76.074 174.872 C 76.017 160.655,75.971 172.402,75.971 200.977 M116.395 175.684 L 113.867 178.320 116.504 175.793 C 117.954 174.402,119.141 173.216,119.141 173.156 C 119.141 172.868,118.743 173.234,116.395 175.684 M104.070 195.898 C 104.070 200.195,104.127 202.006,104.197 199.923 C 104.267 197.840,104.268 194.324,104.198 192.111 C 104.128 189.897,104.071 191.602,104.070 195.898 M231.947 281.538 C 233.082 281.618,234.840 281.617,235.853 281.537 C 236.866 281.456,235.938 281.392,233.789 281.393 C 231.641 281.394,230.812 281.459,231.947 281.538 M249.540 281.543 C 256.054 281.603,266.601 281.603,272.977 281.543 C 279.353 281.482,274.023 281.433,261.133 281.433 C 248.242 281.433,243.025 281.483,249.540 281.543 " stroke="none" fill="#838483" fill-rule="evenodd"></path><path id="path3" d="M320.703 120.435 C 320.703 120.502,321.274 121.073,321.973 121.704 L 323.242 122.852 322.095 121.582 C 321.025 120.399,320.703 120.133,320.703 120.435 M111.650 145.215 C 118.809 145.274,130.410 145.274,137.431 145.215 C 144.451 145.155,138.594 145.106,124.414 145.106 C 110.234 145.106,104.490 145.155,111.650 145.215 M348.627 200.586 C 348.627 229.160,348.674 240.792,348.730 226.434 C 348.787 212.077,348.787 188.698,348.730 174.481 C 348.674 160.265,348.627 172.012,348.627 200.586 M217.676 281.537 C 218.696 281.618,220.366 281.618,221.387 281.537 C 222.407 281.457,221.572 281.391,219.531 281.391 C 217.490 281.391,216.655 281.457,217.676 281.537 M225.298 281.526 C 225.783 281.620,226.487 281.616,226.860 281.518 C 227.233 281.421,226.836 281.344,225.977 281.349 C 225.117 281.353,224.812 281.433,225.298 281.526 " stroke="none" fill="#6b6b6b" fill-rule="evenodd"></path><path id="path4" d="M176.465 85.059 C 196.499 85.115,229.282 85.115,249.316 85.059 C 269.351 85.003,252.959 84.957,212.891 84.957 C 172.822 84.957,156.431 85.003,176.465 85.059 M165.918 117.090 C 187.886 117.146,223.833 117.146,245.801 117.090 C 267.769 117.034,249.795 116.988,205.859 116.988 C 161.924 116.988,143.950 117.034,165.918 117.090 M324.805 124.609 C 325.863 125.684,326.816 126.563,326.924 126.563 C 327.031 126.563,326.253 125.684,325.195 124.609 C 324.137 123.535,323.184 122.656,323.076 122.656 C 322.969 122.656,323.747 123.535,324.805 124.609 M134.174 208.984 C 134.174 236.807,134.220 248.188,134.277 234.277 C 134.334 220.366,134.334 197.603,134.277 183.691 C 134.220 169.780,134.174 181.162,134.174 208.984 M327.846 161.523 C 327.849 162.598,327.925 162.991,328.015 162.397 C 328.104 161.803,328.102 160.924,328.009 160.444 C 327.917 159.963,327.843 160.449,327.846 161.523 M299.700 162.109 C 299.700 162.861,299.780 163.169,299.879 162.793 C 299.977 162.417,299.977 161.802,299.879 161.426 C 299.780 161.050,299.700 161.357,299.700 162.109 M172.728 281.542 C 176.957 281.605,183.988 281.605,188.353 281.543 C 192.718 281.480,189.258 281.428,180.664 281.428 C 172.070 281.428,168.499 281.479,172.728 281.542 " stroke="none" fill="#4c4c4c" fill-rule="evenodd"></path></g></svg>